<svg width="32" height="32" viewBox="0 0 32 32" fill="none" xmlns="http://www.w3.org/2000/svg">
<path fill-rule="evenodd" clip-rule="evenodd" d="M25.6626 13.257C26.0717 12.4254 25.0163 11.7304 24.1361 12.0206C23.4798 12.237 22.7817 12.3537 22.0578 12.3537C18.2155 12.3537 15.1008 9.06817 15.1008 5.01531C15.1008 4.47326 15.1565 3.94493 15.2622 3.43636C15.445 2.55707 14.658 1.6626 13.9028 2.14859C11.5596 3.65642 10.0005 6.33951 10.0005 9.39827C10.0005 14.1139 13.7061 17.9366 18.2773 17.9366C21.5024 17.9366 24.2966 16.0338 25.6626 13.257Z" fill="#F7DB08"/>
<ellipse cx="14.442" cy="18.0143" rx="6.73105" ry="6.8201" fill="#EFEFEF"/>
<ellipse cx="19.9552" cy="22.5884" rx="6.73105" ry="6.8201" fill="#EFEFEF"/>
<ellipse cx="7.73105" cy="23.2066" rx="6.73105" ry="6.8201" fill="#EFEFEF"/>
<ellipse cx="26.0868" cy="24.8343" rx="4.91346" ry="5.19234" fill="#EFEFEF"/>
<rect x="7.71094" y="22.6091" width="18.9748" height="7.41763" fill="#EFEFEF"/>
</svg>
