<svg width="32" height="32" viewBox="0 0 32 32" fill="none" xmlns="http://www.w3.org/2000/svg">
<path fill-rule="evenodd" clip-rule="evenodd" d="M16.9229 9.46288C16.2977 11.9746 14.047 13.8342 11.3664 13.8342C8.20225 13.8342 5.63721 11.2433 5.63721 8.04732C5.63721 6.7107 6.08584 5.47993 6.83931 4.50024C4.75891 5.65304 3.35303 7.85266 3.35303 10.3767C3.35303 14.0953 6.40468 17.1098 10.1691 17.1098C13.9335 17.1098 16.9852 14.0953 16.9852 10.3767C16.9852 10.0667 16.964 9.76169 16.9229 9.46288Z" fill="#FFFB00"/>
<ellipse cx="14.4444" cy="16.8505" rx="6.23149" ry="6.04609" fill="#F8F8F8"/>
<ellipse cx="19.5479" cy="20.906" rx="6.23149" ry="6.04609" fill="#F8F8F8"/>
<ellipse cx="8.23149" cy="21.4538" rx="6.23149" ry="6.04609" fill="#F8F8F8"/>
<ellipse cx="25.2246" cy="22.897" rx="4.5488" ry="4.60307" fill="#F8F8F8"/>
<rect x="8.21289" y="20.9243" width="17.5665" height="6.57581" fill="#F8F8F8"/>
</svg>
