<svg width="18" height="19" viewBox="0 0 18 19" fill="none" xmlns="http://www.w3.org/2000/svg">
<path d="M17 9.99011C17 11.5724 16.5308 13.1191 15.6518 14.4347C14.7727 15.7503 13.5233 16.7756 12.0615 17.3811C10.5997 17.9866 8.99112 18.1451 7.43928 17.8364C5.88743 17.5277 4.46196 16.7658 3.34314 15.647C2.22432 14.5281 1.4624 13.1027 1.15372 11.5508C0.845036 9.99898 1.00346 8.39045 1.60896 6.92864C2.21447 5.46683 3.23985 4.2174 4.55544 3.33835C5.87103 2.4593 7.41775 1.99011 9 1.99011L9 4.54375C7.92281 4.54375 6.86982 4.86317 5.97417 5.46163C5.07851 6.06008 4.38044 6.91069 3.96822 7.90588C3.556 8.90107 3.44814 9.99615 3.65829 11.0526C3.86844 12.1091 4.38715 13.0796 5.14884 13.8413C5.91053 14.603 6.88098 15.1217 7.93747 15.3318C8.99396 15.542 10.089 15.4341 11.0842 15.0219C12.0794 14.6097 12.93 13.9116 13.5285 13.0159C14.1269 12.1203 14.4464 11.0673 14.4464 9.99011H17Z" fill="#333333"/>
<path d="M12.7499 3.20902L8.47356 6.01039L8.43484 0.467651L12.7499 3.20902Z" fill="#333333"/>
</svg>
