<svg width="32" height="32" viewBox="0 0 32 32" fill="none" xmlns="http://www.w3.org/2000/svg">
<ellipse cx="22.9677" cy="12.74" rx="4.38368" ry="4.82473" fill="#FFD45C"/>
<rect x="22.7363" y="18.2566" width="0.609903" height="2.22357" fill="#FFD45C"/>
<rect x="27.9795" y="12.9941" width="0.671266" height="2.0203" transform="rotate(-90 27.9795 12.9941)" fill="#FFD45C"/>
<rect width="0.641319" height="2.12437" transform="matrix(0.672468 0.740126 -0.672468 0.740126 27.7495 7.03247)" fill="#FFD45C"/>
<rect width="0.641319" height="2.12437" transform="matrix(0.672468 0.740126 -0.672468 0.740126 19.1533 16.3254)" fill="#FFD45C"/>
<rect width="0.641319" height="2.12437" transform="matrix(0.672468 -0.740126 0.672468 0.740126 26.3779 16.8)" fill="#FFD45C"/>
<rect width="0.641319" height="2.12437" transform="matrix(0.672468 -0.740126 0.672468 0.740126 17.8013 7.44434)" fill="#FFD45C"/>
<rect x="15.9351" y="13.1572" width="0.671266" height="2.0203" transform="rotate(-90 15.9351 13.1572)" fill="#FFD45C"/>
<rect x="22.5889" y="5" width="0.609903" height="2.22357" fill="#FFD45C"/>
<ellipse cx="14.4405" cy="15.6388" rx="6.22956" ry="6.73425" fill="#F8F8F8"/>
<ellipse cx="19.5425" cy="20.1554" rx="6.22956" ry="6.73425" fill="#F8F8F8"/>
<ellipse cx="8.22956" cy="20.7657" rx="6.22956" ry="6.73425" fill="#F8F8F8"/>
<ellipse cx="25.2173" cy="22.3731" rx="4.54739" ry="5.12698" fill="#F8F8F8"/>
<rect x="8.21094" y="20.1758" width="17.5611" height="7.32426" fill="#F8F8F8"/>
</svg>
