<?xml version="1.0" encoding="UTF-8"?>
<svg id="_레이어_1" data-name="레이어 1" xmlns="http://www.w3.org/2000/svg" viewBox="0 0 226.69 381.11">
  <defs>
    <style>
      .cls-1 {
        fill: #fff;
      }

      .cls-1, .cls-2, .cls-3, .cls-4, .cls-5, .cls-6 {
        stroke-miterlimit: 10;
      }

      .cls-1, .cls-2, .cls-4, .cls-5 {
        stroke-width: 3px;
      }

      .cls-1, .cls-2, .cls-4, .cls-5, .cls-6 {
        stroke: #231815;
      }

      .cls-2 {
        fill: #9fa0a0;
      }

      .cls-3 {
        stroke: #e83828;
        stroke-linecap: round;
        stroke-width: 9px;
      }

      .cls-3, .cls-4 {
        fill: none;
      }

      .cls-5 {
        fill: #fffef3;
      }

      .cls-6 {
        fill: #231815;
        stroke-width: .5px;
      }
    </style>
  </defs>
  <path class="cls-1" d="M59.83,370.98s-12.42,6.48-2.49,7.47,34.44,1.16,34.44,1.16c0,0,12.59-1.56,7.62-7.74s-39.57-.9-39.57-.9Z"/>
  <path class="cls-1" d="M166.01,370.98s12.42,6.48,2.49,7.47c-9.94.99-34.44,1.16-34.44,1.16,0,0-12.59-1.56-7.62-7.74s39.57-.9,39.57-.9Z"/>
  <path class="cls-2" d="M173.91,287.77v78.72s0,.06.03.08c.39.41,4.19,4.95-21.09,5.27-25.01.31-33.19-1.74-34.02-1.97-.05-.01-.08-.05-.08-.1l-5.41-39.1c-.02-.14-.22-.14-.24,0l-5.41,39.1s-.04.08-.08.1c-.83.23-9,2.28-34.02,1.97-25.28-.32-21.48-4.86-21.09-5.27.02-.02.03-.05.03-.08v-78.72"/>
  <path class="cls-4" d="M68.2,299.46s9.27,18.22-9.6,10.6"/>
  <path class="cls-4" d="M160.03,299.46s-9.27,18.22,9.6,10.6"/>
  <path class="cls-5" d="M224.26,148.23s-4.86,54.42-44.6,74.24c0,0-5.74,1.27-5.74,11.87,0,10.6,0,53.43,0,53.43,0,0-3.91,10.16-60.69,10.16-56.78,0-60.69-10.16-60.69-10.16v-53.43c0-10.6-5.74-11.87-5.74-11.87C7.06,202.65,2.2,148.23,2.2,148.23l25.75-10.99c4.89,14.57,33.64,43.09,33.64,43.09,0,0,89.64-3.31,102.89,0,13.25,3.31,33.33-43.49,33.33-43.49l26.45,11.38Z"/>
  <path class="cls-1" d="M22.95,151.76s16.28-17.22-5.11-21.2-15.65,17.66-15.65,17.66c0,0,6.18,13.25,20.75,3.53Z"/>
  <path class="cls-1" d="M203.74,151.76s-16.28-17.22,5.11-21.2,15.65,17.66,15.65,17.66c0,0-6.18,13.25-20.75,3.53Z"/>
  <circle class="cls-1" cx="113.23" cy="101.03" r="99.53"/>
  <rect class="cls-6" x="36.77" y="65.34" width="152.92" height="101.84" rx="36.8" ry="36.8"/>
  <g>
    <line class="cls-3" x1="88.36" y1="143.54" x2="138.34" y2="93.57"/>
    <line class="cls-3" x1="88.36" y1="93.57" x2="138.34" y2="143.54"/>
  </g>
</svg>